<?xml version="1.0" encoding="UTF-8"?>
<svg width="31px" height="26px" viewBox="0 0 31 26" version="1.1" xmlns="http://www.w3.org/2000/svg" xmlns:xlink="http://www.w3.org/1999/xlink">
    <title>Callout/Quote/Curly</title>
    <defs>
        <polygon id="path-1" points="0 0 31 0 31 26 0 26"></polygon>
    </defs>
    <g id="Symbols" stroke="none" stroke-width="1" fill="none" fill-rule="evenodd">
        <g id="Callout/Quote" transform="translate(-78.000000, 7.000000)">
            <g id="Group-3" transform="translate(78.000000, -7.000000)">
                <mask id="mask-2" fill="white">
                    <use xlink:href="#path-1"></use>
                </mask>
                <g id="Clip-2"></g>
                <path d="M29.1161872,5.93393606 L25.427558,12.6488209 L26.6836704,12.6488209 C29.5090337,12.6488209 31,14.1321279 31,16.8650945 L31,21.4714885 C31,24.4381025 29.5090337,26 26.2125393,26 L21.8962097,26 C18.5997153,26 17.1087491,24.4381025 17.1087491,21.4714885 L17.1087491,15.9276728 C17.1087491,13.0389412 17.8154457,10.7746855 19.2274157,8.35466478 L22.8377603,2.18637329 C23.7010262,0.624475791 24.7998577,0 26.1342547,0 C29.1944719,0 30.9217154,2.73296661 29.1161872,5.93393606 M12.0074382,5.93393606 L8.31880897,12.6488209 L9.57492137,12.6488209 C12.4002847,12.6488209 13.8912509,14.1321279 13.8912509,16.8650945 L13.8912509,21.4714885 C13.8912509,24.4381025 12.4002847,26 9.02550564,26 L4.78746069,26 C1.41268165,26 0,24.4381025 0,21.4714885 L0,15.9276728 C0,13.0389412 0.78498129,10.7746855 2.11866664,8.35466478 L5.6507266,2.18637329 C6.51399252,0.624475791 7.69110861,0 9.02550564,0 C12.0074382,0 13.8129663,2.73296661 12.0074382,5.93393606" id="Fill-1" fill="#2A8BB8" mask="url(#mask-2)"></path>
            </g>
        </g>
    </g>
</svg>